<?xml version="1.0" standalone="no"?>
<!DOCTYPE svg PUBLIC "-//W3C//DTD SVG 20010904//EN"
 "http://www.w3.org/TR/2001/REC-SVG-20010904/DTD/svg10.dtd">
<svg version="1.0" xmlns="http://www.w3.org/2000/svg"
 width="800.000000pt" height="800.000000pt" viewBox="0 0 800.000000 800.000000"
 preserveAspectRatio="xMidYMid meet">
<metadata>
Created by potrace 1.11, written by Peter Selinger 2001-2013
</metadata>
<g transform="translate(0.000000,800.000000) scale(0.100000,-0.100000)"
fill="#000000" stroke="none">
<path d="M1310 6370 c-4 -8 -11 -35 -15 -60 -12 -71 -15 -89 -31 -165 -8 -38
-17 -85 -20 -104 -3 -18 -8 -43 -10 -55 -10 -45 -16 -73 -24 -116 -10 -56 -19
-99 -25 -126 -3 -12 -7 -39 -11 -60 -3 -21 -7 -43 -8 -49 -2 -5 -6 -31 -11
-58 -4 -26 -11 -50 -16 -53 -5 -3 -7 -9 -4 -14 3 -5 1 -28 -4 -52 -14 -60 -20
-93 -32 -162 -5 -33 -12 -63 -14 -67 -3 -4 -7 -24 -10 -45 -2 -22 -9 -61 -15
-89 -11 -55 -18 -87 -25 -125 -3 -14 -7 -34 -9 -45 -5 -26 -43 -221 -51 -265
-4 -19 -8 -39 -9 -45 -2 -5 -7 -32 -11 -60 -5 -27 -10 -52 -10 -55 -1 -3 -5
-23 -10 -45 -9 -45 -13 -65 -20 -97 -2 -12 -7 -40 -11 -62 -3 -22 -7 -44 -10
-47 -2 -4 -6 -22 -8 -40 -3 -19 -12 -69 -21 -112 -9 -43 -18 -91 -20 -105 -1
-15 -8 -45 -13 -67 -6 -22 -13 -56 -16 -75 -6 -34 -10 -58 -21 -110 -3 -14 -8
-41 -11 -60 -3 -19 -9 -51 -14 -70 -5 -20 -12 -51 -14 -70 -3 -19 -8 -46 -11
-60 -3 -14 -8 -41 -11 -60 -3 -19 -7 -37 -9 -40 -2 -3 -6 -26 -10 -50 -4 -25
-8 -49 -9 -55 -2 -5 -6 -28 -11 -50 -4 -22 -10 -49 -12 -60 -2 -11 -6 -31 -9
-45 -8 -48 -17 -95 -20 -105 -1 -5 -5 -28 -9 -50 -3 -22 -8 -47 -10 -55 -2 -8
-7 -31 -10 -50 -3 -19 -8 -42 -10 -50 -2 -8 -7 -31 -10 -50 -3 -19 -8 -42 -10
-50 -2 -8 -7 -28 -9 -45 -7 -35 -43 -219 -51 -255 -3 -14 -7 -42 -10 -64 -3
-21 -7 -41 -9 -45 -2 -3 -7 -22 -10 -41 -3 -19 -7 -44 -10 -55 -2 -11 -11 -58
-20 -105 -9 -47 -18 -96 -21 -110 -3 -14 -8 -36 -10 -50 -2 -14 -9 -50 -15
-80 -6 -30 -13 -66 -16 -80 -3 -14 -16 -81 -30 -150 -14 -69 -27 -136 -29
-150 -7 -49 -16 -93 -19 -99 -2 -3 -7 -27 -10 -53 -6 -44 -5 -48 14 -49 117
-4 570 0 578 5 6 3 11 14 10 24 0 9 10 64 21 122 12 58 23 116 26 130 2 14 9
50 15 80 6 30 13 66 16 80 2 14 9 45 14 70 6 25 12 56 14 70 3 14 5 25 6 25 1
0 3 14 5 30 2 17 6 41 9 55 3 14 9 41 12 60 4 19 9 44 11 55 2 11 6 31 9 45 2
14 7 36 11 50 3 14 7 34 9 45 2 11 5 31 7 45 3 14 8 43 12 65 4 22 9 43 12 48
2 4 6 24 8 45 2 20 7 48 10 62 3 14 8 36 11 50 7 41 24 123 30 150 3 14 7 34
9 45 2 11 9 47 15 80 6 33 13 69 15 81 3 19 17 92 31 154 3 14 7 34 9 45 11
64 17 100 21 119 3 11 9 44 15 71 15 71 18 87 24 110 2 11 9 40 15 65 6 25 13
52 17 60 3 8 7 17 8 20 20 67 30 96 35 100 3 3 6 12 8 20 4 18 84 180 113 230
74 126 241 308 359 392 79 56 158 103 191 113 13 4 26 11 29 15 5 7 146 58
179 65 9 2 38 8 64 14 123 28 337 35 437 13 36 -7 70 -15 75 -16 34 -7 145
-51 145 -58 0 -4 6 -8 13 -8 8 0 25 -9 38 -21 129 -110 175 -185 207 -334 8
-42 7 -218 -2 -290 -5 -33 -10 -73 -12 -90 -2 -16 -6 -41 -9 -55 -3 -14 -12
-63 -20 -110 -8 -47 -17 -96 -20 -110 -16 -72 -27 -128 -30 -150 -2 -14 -13
-70 -25 -125 -11 -55 -23 -113 -25 -130 -6 -31 -11 -62 -21 -105 -3 -14 -7
-36 -10 -50 -2 -14 -14 -70 -24 -125 -11 -56 -22 -114 -24 -130 -3 -17 -13
-70 -24 -120 -11 -49 -23 -106 -26 -125 -3 -19 -13 -69 -21 -110 -9 -41 -18
-88 -21 -105 -3 -16 -14 -75 -25 -130 -11 -55 -22 -111 -25 -125 -2 -14 -7
-36 -9 -50 -3 -14 -8 -38 -11 -55 -3 -16 -12 -61 -20 -100 -8 -38 -17 -83 -20
-100 -3 -16 -16 -88 -31 -158 -14 -70 -23 -130 -20 -134 4 -3 131 -5 284 -5
338 1 323 0 322 10 -1 4 0 9 1 12 1 3 3 14 4 25 6 39 16 95 26 140 6 25 13 62
16 83 8 47 12 67 14 67 1 0 3 9 5 20 7 47 17 103 26 143 5 23 12 59 15 80 3
20 7 45 10 54 3 10 7 30 10 45 2 16 11 60 19 98 8 39 16 84 19 100 2 17 9 53
15 80 6 28 13 61 15 75 3 14 12 63 22 110 9 47 18 92 19 100 4 26 25 135 49
246 2 12 7 39 10 60 4 22 13 73 22 114 23 110 37 186 39 205 1 6 4 24 8 40 4
17 9 44 12 60 3 17 7 40 10 53 24 106 45 219 49 267 2 17 6 39 9 50 8 27 21
132 32 265 10 121 6 338 -8 387 -3 10 -8 34 -11 53 -6 43 -41 153 -64 200 -9
19 -17 37 -17 40 -1 5 -23 42 -64 104 -31 48 -132 153 -181 189 -167 122 -400
188 -665 189 -72 0 -210 -9 -245 -17 -14 -3 -41 -8 -60 -11 -19 -3 -53 -10
-75 -16 -22 -5 -47 -11 -56 -13 -64 -13 -363 -136 -404 -167 -5 -5 -50 -35
-100 -68 -49 -33 -101 -67 -115 -77 -38 -27 -235 -224 -255 -255 -9 -16 -22
-28 -27 -28 -5 0 -6 5 -2 12 4 7 9 21 10 33 1 11 19 103 39 205 20 102 38 196
40 210 4 24 9 45 21 93 3 12 6 29 6 37 0 8 9 53 19 100 10 47 20 100 23 118
13 72 16 89 26 137 6 28 13 64 15 80 3 17 8 41 11 55 4 14 8 32 9 40 5 29 16
85 20 100 2 8 7 35 10 60 4 24 8 47 11 51 2 3 5 21 8 40 2 19 15 90 29 159 23
112 37 191 38 205 0 2 4 19 9 36 5 18 12 48 15 68 3 20 8 48 10 61 3 14 8 41
11 60 l6 35 -297 0 c-254 0 -298 -2 -305 -15z"/>
<path d="M4281 157 c-4 -4 -5 -28 -1 -53 4 -24 4 -47 0 -49 -4 -3 -5 -16 -2
-30 l4 -25 1743 0 1743 0 4 80 c2 48 -1 80 -7 81 -61 6 -3478 2 -3484 -4z"/>
</g>
</svg>
